<svg xmlns="http://www.w3.org/2000/svg" width="256" height="256" viewBox="0 0 100 100"><rect width="100" height="100" rx="20" fill="#ac47f4"></rect><path d="M34.64 49.99L34.64 49.99Q34.64 57.97 30.69 62.25Q26.73 66.53 19.35 66.53L19.35 66.53Q11.97 66.53 8.01 62.25Q4.06 57.97 4.06 49.95L4.06 49.95Q4.06 41.93 8.02 37.70Q11.99 33.47 19.39 33.47L19.39 33.47Q26.80 33.47 30.72 37.73Q34.64 41.99 34.64 49.99ZM11.20 49.99L11.20 49.99Q11.20 55.37 13.24 58.10Q15.28 60.82 19.35 60.82L19.35 60.82Q27.50 60.82 27.50 49.99L27.50 49.99Q27.50 39.13 19.39 39.13L19.39 39.13Q15.33 39.13 13.26 41.87Q11.20 44.61 11.20 49.99ZM48.11 39.55L48.11 48.23L50.31 48.23Q53.54 48.23 55.08 47.15Q56.61 46.08 56.61 43.77L56.61 43.77Q56.61 41.49 55.04 40.52Q53.47 39.55 50.18 39.55L50.18 39.55L48.11 39.55ZM51.74 53.77L48.11 53.77L48.11 66.09L41.30 66.09L41.30 33.97L50.66 33.97Q57.21 33.97 60.35 36.35Q63.49 38.74 63.49 43.59L63.49 43.59Q63.49 46.43 61.93 48.64Q60.37 50.85 57.51 52.10L57.51 52.10Q64.77 62.93 66.96 66.09L66.96 66.09L59.40 66.09L51.74 53.77ZM83.20 53.72L83.20 48.06L95.94 48.06L95.94 64.71Q92.85 65.72 90.11 66.13Q87.38 66.53 84.52 66.53L84.52 66.53Q77.25 66.53 73.41 62.26Q69.58 57.99 69.58 49.99L69.58 49.99Q69.58 42.21 74.03 37.86Q78.48 33.51 86.36 33.51L86.36 33.51Q91.31 33.51 95.90 35.49L95.90 35.49L93.64 40.94Q90.12 39.18 86.32 39.18L86.32 39.18Q81.90 39.18 79.25 42.14Q76.59 45.11 76.59 50.12L76.59 50.12Q76.59 55.35 78.73 58.11Q80.87 60.87 84.96 60.87L84.96 60.87Q87.09 60.87 89.29 60.43L89.29 60.43L89.29 53.72L83.20 53.72Z" fill="#ffffff"></path></svg>